<svg width="454" height="107" viewBox="0 0 454 107" fill="none" xmlns="http://www.w3.org/2000/svg">
<path d="M177.1 103.176C172.913 103.176 169.232 102.374 166.059 100.772C162.886 99.1686 160.416 96.9441 158.65 94.0981C156.883 91.2194 156 87.8827 156 84.088C156 80.2933 156.883 76.9729 158.65 74.1269C160.416 71.2482 162.886 69.0073 166.059 67.4044C169.232 65.8015 172.913 65 177.1 65C181.287 65 184.967 65.8015 188.14 67.4044C191.314 69.0073 193.783 71.2482 195.55 74.1269C197.316 76.9729 198.2 80.2933 198.2 84.088C198.2 87.8827 197.316 91.2194 195.55 94.0981C193.783 96.9441 191.314 99.1686 188.14 100.772C184.967 102.374 181.287 103.176 177.1 103.176ZM202.235 90.516H208.81C209.007 91.9881 209.612 93.2803 210.626 94.3925C211.673 95.5048 213.047 96.3716 214.748 96.9932C216.449 97.582 218.412 97.8764 220.636 97.8764C223.94 97.8764 226.557 97.3694 228.487 96.3553C230.417 95.3085 231.382 93.9018 231.382 92.1353C231.382 90.696 230.826 89.6164 229.714 88.8968C228.602 88.1771 226.59 87.6373 223.678 87.2775L215.729 86.247C211.28 85.6582 208.042 84.5623 206.013 82.9594C204.018 81.3237 203.02 79.0175 203.02 76.0406C203.02 73.7834 203.691 71.837 205.032 70.2014C206.406 68.533 208.336 67.2572 210.822 66.3739C213.308 65.458 216.22 65 219.557 65C222.861 65 225.788 65.4907 228.34 66.4721C230.892 67.4535 232.92 68.8274 234.425 70.5939C235.962 72.3277 236.796 74.3722 236.927 76.7276H230.352C230.188 75.4191 229.632 74.2905 228.684 73.3418C227.768 72.3931 226.524 71.6571 224.954 71.1337C223.384 70.5775 221.536 70.2995 219.409 70.2995C216.4 70.2995 213.995 70.7902 212.196 71.7716C210.397 72.753 209.497 74.0942 209.497 75.7953C209.497 77.1038 210.021 78.1179 211.068 78.8375C212.147 79.5245 214.012 80.0479 216.662 80.4078L224.709 81.5364C228.013 81.9943 230.614 82.6159 232.511 83.401C234.441 84.1534 235.815 85.1838 236.633 86.4924C237.451 87.7682 237.859 89.4202 237.859 91.4484C237.859 93.8037 237.14 95.8646 235.7 97.6311C234.261 99.3976 232.233 100.772 229.616 101.753C227.032 102.702 224.006 103.176 220.538 103.176C217.005 103.176 213.881 102.653 211.166 101.606C208.483 100.526 206.357 99.0378 204.787 97.1404C203.217 95.2431 202.366 93.0349 202.235 90.516ZM266.208 84.2352L266.846 82.8122C269.758 82.8449 272.129 83.2865 273.961 84.137C275.826 84.9876 277.184 86.1325 278.034 87.5719C278.917 89.0113 279.359 90.6305 279.359 92.4297C279.359 94.3925 278.885 96.1263 277.936 97.6311C277.02 99.1359 275.662 100.33 273.863 101.213C272.064 102.064 269.823 102.489 267.141 102.489H242.606L245.501 83.5973L242.606 65.687H266.258C269.66 65.687 272.277 66.4884 274.109 68.0914C275.973 69.6616 276.906 71.837 276.906 74.6176C276.906 76.0897 276.546 77.529 275.826 78.9357C275.139 80.3096 274.01 81.4873 272.44 82.4687C270.903 83.4174 268.825 84.0062 266.208 84.2352ZM249.132 100.673L246.63 97.2876H266.405C268.433 97.2876 270.003 96.8296 271.115 95.9137C272.26 94.965 272.833 93.6238 272.833 91.89C272.833 90.0581 272.162 88.6351 270.821 87.621C269.512 86.6069 267.566 86.0998 264.982 86.0998H249.034V81.0947H264.344C266.078 81.0947 267.517 80.6204 268.662 79.6717C269.807 78.6903 270.379 77.3 270.379 75.5008C270.379 74.1596 269.905 73.0637 268.956 72.2132C268.008 71.3299 266.634 70.8883 264.834 70.8883H246.63L249.132 67.5025L251.733 83.5973L249.132 100.673ZM304.565 103.176C300.378 103.176 296.698 102.374 293.525 100.772C290.351 99.1686 287.882 96.9441 286.115 94.0981C284.349 91.2194 283.465 87.8827 283.465 84.088C283.465 80.2933 284.349 76.9729 286.115 74.1269C287.882 71.2482 290.351 69.0073 293.525 67.4044C296.698 65.8015 300.378 65 304.565 65C308.752 65 312.433 65.8015 315.606 67.4044C318.779 69.0073 321.249 71.2482 323.015 74.1269C324.782 76.9729 325.665 80.2933 325.665 84.088C325.665 87.8827 324.782 91.2194 323.015 94.0981C321.249 96.9441 318.779 99.1686 315.606 100.772C312.433 102.374 308.752 103.176 304.565 103.176ZM336.472 82.2724H351.438C353.597 82.2724 355.298 81.7817 356.541 80.8003C357.817 79.8189 358.455 78.4777 358.455 76.7766C358.455 75.0429 357.817 73.7016 356.541 72.753C355.298 71.7716 353.597 71.2809 351.438 71.2809H335.54L338.435 67.6497V102.489H331.958V65.687H352.027C354.611 65.687 356.868 66.1613 358.799 67.11C360.761 68.0259 362.282 69.3181 363.362 70.9865C364.474 72.6221 365.03 74.5522 365.03 76.7766C365.03 78.9357 364.474 80.8494 363.362 82.5177C362.282 84.1534 360.761 85.4456 358.799 86.3942C356.868 87.3102 354.611 87.7682 352.027 87.7682H336.472V82.2724ZM343.734 85.2656H351.34L365.963 102.489H358.21L343.734 85.2656ZM405.834 98.5634L403.184 98.8578V65.687H409.465V102.489H401.221L375.411 69.3181L378.011 69.0237V102.489H371.73V65.687H380.17L405.834 98.5634ZM447.078 81.3892V86.7868H421.365V81.3892H447.078ZM425.634 84.088L423.034 100.526L419.942 96.8951H448.501V102.489H416.409L419.353 84.088L416.409 65.687H448.255V71.2809H419.942L423.034 67.6497L425.634 84.088Z" fill="#29222A"/>
<path d="M167.808 89.191C172.473 86.5582 172.473 81.4447 167.808 78.8119C172.473 80.3564 173.356 79.4736 171.81 74.8104C174.442 79.4755 179.556 79.4755 182.189 74.8104C180.644 79.4755 181.527 80.3584 186.192 78.8119C181.527 81.4447 181.527 86.5582 186.192 89.191C181.527 87.6465 180.644 88.5293 182.189 93.1925C179.556 88.5273 174.442 88.5273 171.81 93.1925C173.354 88.5273 172.471 87.6445 167.808 89.191Z" fill="#F7AAFC"/>
<path d="M164 84C170.597 84 177 77.5968 177 71C177 77.5968 183.403 84 190 84C183.403 84 177 90.4032 177 97C177 90.4032 170.597 84 164 84Z" fill="#F7AAFC"/>
<path d="M295.808 89.191C300.473 86.5582 300.473 81.4447 295.808 78.8119C300.473 80.3564 301.356 79.4736 299.81 74.8104C302.442 79.4755 307.556 79.4755 310.189 74.8104C308.644 79.4755 309.527 80.3584 314.192 78.8119C309.527 81.4447 309.527 86.5582 314.192 89.191C309.527 87.6465 308.644 88.5293 310.189 93.1925C307.556 88.5273 302.442 88.5273 299.81 93.1925C301.354 88.5273 300.471 87.6445 295.808 89.191Z" fill="#C0C0F7"/>
<path d="M292 84C298.597 84 305 77.5968 305 71C305 77.5968 311.403 84 318 84C311.403 84 305 90.4032 305 97C305 90.4032 298.597 84 292 84Z" fill="#C0C0F7"/>
<path d="M38.4032 45.5893L35.7535 45.8837V12.7128H42.0343V49.5148H33.7907L7.98024 16.344L10.5809 16.0496V49.5148H4.30004V12.7128H12.74L38.4032 45.5893ZM50.2546 12.7128H56.7317V49.5148H50.2546V12.7128ZM103.78 34.9412C103.453 37.9508 102.389 40.6169 100.59 42.9395C98.8236 45.2294 96.501 47.0123 93.6223 48.2881C90.7436 49.5639 87.4559 50.2018 83.7594 50.2018C79.6375 50.2018 76.0228 49.4003 72.915 47.7974C69.8073 46.1945 67.3866 43.97 65.6528 41.124C63.919 38.2452 63.0521 34.9085 63.0521 31.1138C63.0521 27.3191 63.919 23.9988 65.6528 21.1528C67.3866 18.274 69.8073 16.0332 72.915 14.4303C76.0228 12.8273 79.6375 12.0259 83.7594 12.0259C87.4559 12.0259 90.7436 12.6638 93.6223 13.9396C96.501 15.2154 98.8236 16.9982 100.59 19.2881C102.389 21.578 103.453 24.2441 103.78 27.2864H97.2534C96.8936 25.3237 96.1085 23.6389 94.8981 22.2323C93.7204 20.8256 92.1829 19.7461 90.2856 18.9937C88.3882 18.2086 86.1965 17.8161 83.7103 17.8161C80.8316 17.8161 78.329 18.3558 76.2027 19.4353C74.1091 20.5149 72.4898 22.0524 71.3448 24.0479C70.1999 26.0433 69.6274 28.3987 69.6274 31.1138C69.6274 33.829 70.1999 36.1843 71.3448 38.1798C72.4898 40.1753 74.1091 41.7128 76.2027 42.7923C78.329 43.8719 80.8316 44.4116 83.7103 44.4116C86.1965 44.4116 88.3882 44.0354 90.2856 43.283C92.1829 42.5306 93.7204 41.4511 94.8981 40.0445C96.1085 38.6051 96.8936 36.904 97.2534 34.9412H103.78ZM128.859 50.2018C124.672 50.2018 120.992 49.4003 117.819 47.7974C114.646 46.1945 112.176 43.97 110.409 41.124C108.643 38.2452 107.76 34.9085 107.76 31.1138C107.76 27.3191 108.643 23.9988 110.409 21.1528C112.176 18.274 114.646 16.0332 117.819 14.4303C120.992 12.8273 124.672 12.0259 128.859 12.0259C133.047 12.0259 136.727 12.8273 139.9 14.4303C143.073 16.0332 145.543 18.274 147.309 21.1528C149.076 23.9988 149.959 27.3191 149.959 31.1138C149.959 34.9085 149.076 38.2452 147.309 41.124C145.543 43.97 143.073 46.1945 139.9 47.7974C136.727 49.4003 133.047 50.2018 128.859 50.2018ZM128.859 44.4116C131.836 44.4116 134.404 43.8719 136.563 42.7923C138.722 41.7128 140.391 40.1753 141.568 38.1798C142.779 36.1843 143.384 33.829 143.384 31.1138C143.384 28.3987 142.779 26.0433 141.568 24.0479C140.391 22.0524 138.722 20.5149 136.563 19.4353C134.404 18.3558 131.836 17.8161 128.859 17.8161C125.915 17.8161 123.347 18.3558 121.156 19.4353C118.996 20.5149 117.312 22.0524 116.101 24.0479C114.924 26.0433 114.335 28.3987 114.335 31.1138C114.335 33.829 114.924 36.1843 116.101 38.1798C117.312 40.1753 118.996 41.7128 121.156 42.7923C123.347 43.8719 125.915 44.4116 128.859 44.4116ZM162.729 12.7128V46.6197L159.834 43.8228H187.558V49.5148H156.252V12.7128H162.729ZM197.386 41.0749V35.7264H223.098V41.0749H197.386ZM214.462 12.7128L232.127 49.5148H225.208L209.162 15.1663H211.665L195.619 49.5148H188.701L206.366 12.7128H214.462ZM232.582 37.5419H239.158C239.354 39.014 239.959 40.3062 240.973 41.4184C242.02 42.5306 243.394 43.3975 245.095 44.0191C246.796 44.6079 248.759 44.9023 250.983 44.9023C254.287 44.9023 256.904 44.3953 258.834 43.3812C260.764 42.3344 261.729 40.9277 261.729 39.1612C261.729 37.7218 261.173 36.6423 260.061 35.9226C258.949 35.2029 256.937 34.6632 254.026 34.3033L246.076 33.2729C241.627 32.6841 238.389 31.5882 236.361 29.9852C234.365 28.3496 233.367 26.0433 233.367 23.0665C233.367 20.8093 234.038 18.8629 235.379 17.2272C236.753 15.5589 238.683 14.2831 241.169 13.3998C243.656 12.4839 246.567 12.0259 249.904 12.0259C253.208 12.0259 256.136 12.5166 258.687 13.498C261.239 14.4793 263.267 15.8533 264.772 17.6198C266.309 19.3536 267.143 21.3981 267.274 23.7534H260.699C260.535 22.4449 259.979 21.3163 259.031 20.3677C258.115 19.419 256.872 18.6829 255.301 18.1595C253.731 17.6034 251.883 17.3254 249.757 17.3254C246.747 17.3254 244.343 17.8161 242.543 18.7974C240.744 19.7788 239.845 21.1201 239.845 22.8211C239.845 24.1296 240.368 25.1437 241.415 25.8634C242.494 26.5504 244.359 27.0738 247.009 27.4336L255.056 28.5622C258.36 29.0202 260.961 29.6418 262.858 30.4269C264.788 31.1793 266.162 32.2097 266.98 33.5182C267.798 34.794 268.207 36.446 268.207 38.4742C268.207 40.8296 267.487 42.8905 266.048 44.657C264.608 46.4235 262.58 47.7974 259.963 48.7788C257.379 49.7275 254.353 50.2018 250.885 50.2018C247.352 50.2018 244.228 49.6784 241.513 48.6316C238.83 47.5521 236.704 46.0636 235.134 44.1663C233.564 42.2689 232.713 40.0608 232.582 37.5419Z" fill="#29222A"/>
<path d="M118 31C118 31 122 23 129 23C136 23 140 31 140 31C140 31 136 39 129 39C122 39 118 31 118 31Z" stroke="#29222A" stroke-width="2" stroke-linecap="round" stroke-linejoin="round"/>
<path d="M129 34C130.657 34 132 32.6569 132 31C132 29.3431 130.657 28 129 28C127.343 28 126 29.3431 126 31C126 32.6569 127.343 34 129 34Z" stroke="#29222A" stroke-width="2" stroke-linecap="round" stroke-linejoin="round"/>
</svg>
