<svg width="195" height="45" viewBox="0 0 195 45" fill="none" xmlns="http://www.w3.org/2000/svg">
<path d="M31.9534 4.68697V32.7157L9.83406 4.37931L9.68392 4.18697H9.43992H1H0.5V4.68697V41.489V41.989H1H7.28087H7.78087V41.489V13.1172L30.0961 41.7961L30.2462 41.989H30.4907H38.7343H39.2343V41.489V4.68697V4.18697H38.7343H32.4534H31.9534V4.68697ZM46.9546 4.18697H46.4546V4.68697V41.489V41.989H46.9546H53.4318H53.9318V41.489V4.68697V4.18697H53.4318H46.9546ZM100.976 26.9694L101.037 26.4154H100.479H93.9532H93.5365L93.4614 26.8252C93.1163 28.708 92.3663 30.3279 91.2152 31.6968L91.2145 31.6976C90.096 33.0336 88.63 34.0671 86.8011 34.7924C84.9736 35.517 82.8466 35.8857 80.4101 35.8857C77.5944 35.8857 75.1727 35.3581 73.1298 34.3212C71.1205 33.2846 69.5738 31.8144 68.4783 29.9051C67.3841 27.998 66.8272 25.7316 66.8272 23.088C66.8272 20.4443 67.3841 18.178 68.4783 16.2708C69.5739 14.3614 71.1207 12.8911 73.1301 11.8547C75.1729 10.8178 77.5945 10.2902 80.4101 10.2902C82.8442 10.2902 84.9688 10.6745 86.7942 11.4299L86.8011 11.4326C88.63 12.1579 90.096 13.1914 91.2145 14.5274L91.2189 14.5325C92.3671 15.8669 93.1163 17.4684 93.4614 19.3508L93.5365 19.7606H93.9532H100.479H101.036L100.977 19.2071C100.64 16.0775 99.5438 13.3225 97.6847 10.9555C95.8631 8.59465 93.472 6.76278 90.5247 5.45659C87.5721 4.14802 84.2135 3.5 80.4592 3.5C76.2718 3.5 72.5759 4.31454 69.3856 5.96003L69.6148 6.4044L69.3856 5.96003C66.1994 7.60344 63.7085 9.90694 61.9249 12.8678C60.1375 15.8024 59.2519 19.215 59.2519 23.088C59.2519 26.9616 60.1377 30.3898 61.9243 33.3561L61.9256 33.3582C63.7096 36.2866 66.2005 38.5731 69.3856 40.2159C72.5759 41.8614 76.2718 42.6759 80.4592 42.6759C84.2135 42.6759 87.5721 42.0279 90.5247 40.7193C93.4725 39.4129 95.8641 37.5806 97.6858 35.2191C99.543 32.8214 100.64 30.0676 100.976 26.9694ZM106.684 33.3597L106.685 33.3617C108.503 36.2906 111.044 38.5761 114.294 40.2178C117.548 41.8619 121.308 42.6759 125.56 42.6759C129.811 42.6759 133.571 41.8619 136.825 40.2178C140.075 38.5761 142.616 36.2907 144.435 33.3618L144.436 33.3596C146.256 30.3928 147.159 26.9633 147.159 23.088C147.159 19.2137 146.257 15.8002 144.436 12.8653C142.618 9.90339 140.077 7.60054 136.825 5.95811C133.571 4.3141 129.811 3.5 125.56 3.5C121.308 3.5 117.548 4.3141 114.294 5.95811C111.043 7.60032 108.502 9.90282 106.685 12.8643C104.863 15.7994 103.96 19.2133 103.96 23.088C103.96 26.9633 104.863 30.3928 106.684 33.3597ZM137.841 29.8946L137.838 29.8997C136.712 31.8087 135.116 33.2808 133.039 34.3193C130.964 35.3569 128.476 35.8857 125.56 35.8857C122.677 35.8857 120.187 35.3575 118.078 34.3185C116.002 33.28 114.39 31.8073 113.231 29.8969C112.107 27.9915 111.535 25.7279 111.535 23.088C111.535 20.4479 112.107 18.1845 113.231 16.2789C114.39 14.3684 116.002 12.8957 118.078 11.8573C120.188 10.8183 122.677 10.2902 125.56 10.2902C128.476 10.2902 130.964 10.819 133.039 11.8567L133.263 11.4095L133.039 11.8567C135.116 12.8951 136.712 14.3672 137.838 16.2762L137.841 16.2812C138.997 18.1866 139.584 20.449 139.584 23.088C139.584 25.7269 138.997 27.9894 137.841 29.8946ZM153.213 33.3596L153.214 33.3618C155.033 36.2906 157.573 38.5761 160.824 40.2178C164.078 41.8619 167.838 42.6759 172.089 42.6759C176.34 42.6759 180.101 41.8619 183.355 40.2178C186.605 38.5761 189.146 36.2906 190.964 33.3617L190.965 33.3597C192.786 30.3928 193.689 26.9633 193.689 23.088C193.689 19.2131 192.786 15.7989 190.964 12.8637C189.147 9.90248 186.606 7.6002 183.355 5.95811C180.101 4.3141 176.34 3.5 172.089 3.5C167.838 3.5 164.078 4.3141 160.824 5.95809C157.571 7.60055 155.031 9.90344 153.213 12.8653C151.392 15.8001 150.489 19.2136 150.489 23.088C150.489 26.9634 151.393 30.3928 153.213 33.3596Z" fill="#C0C0F7" stroke="#29222A"/>
<path d="M162.808 28.1909C167.473 25.5581 167.473 20.4447 162.808 17.8119C167.473 19.3564 168.356 18.4735 166.81 13.8103C169.442 18.4755 174.556 18.4755 177.189 13.8103C175.644 18.4755 176.527 19.3584 181.192 17.8119C176.527 20.4447 176.527 25.5581 181.192 28.1909C176.527 26.6464 175.644 27.5293 177.189 32.1924C174.556 27.5273 169.442 27.5273 166.81 32.1924C168.354 27.5273 167.471 26.6444 162.808 28.1909Z" fill="#29222A"/>
<path d="M159 23C165.597 23 172 16.5968 172 10C172 16.5968 178.403 23 185 23C178.403 23 172 29.4032 172 36C172 29.4032 165.597 23 159 23Z" fill="#29222A"/>
<path d="M114.042 23C114.042 23 118.208 15 125.5 15C132.792 15 136.958 23 136.958 23C136.958 23 132.792 31 125.5 31C118.208 31 114.042 23 114.042 23Z" stroke="#F7AAFC" stroke-width="2" stroke-linecap="round" stroke-linejoin="round"/>
<path d="M125.5 26C127.226 26 128.625 24.6569 128.625 23C128.625 21.3431 127.226 20 125.5 20C123.774 20 122.375 21.3431 122.375 23C122.375 24.6569 123.774 26 125.5 26Z" stroke="#F7AAFC" stroke-width="2" stroke-linecap="round" stroke-linejoin="round"/>
</svg>
